<svg width="254" height="92" viewBox="0 0 254 92" fill="none" xmlns="http://www.w3.org/2000/svg">
<rect width="13.5051" height="92" fill="#F5F4F4"/>
<rect x="22.3354" width="13.5051" height="92" fill="#F5F4F4"/>
<rect x="77.3947" width="13.5051" height="92" fill="#F5F4F4"/>
<rect x="49.865" y="42.5829" width="13.5051" height="49.4171" fill="#F5F4F4"/>
<path d="M237.001 57.6155C238.472 57.6155 239.733 57.2035 240.782 56.3795C241.846 55.5556 242.645 54.4701 243.177 53.1232C243.709 51.7764 243.976 50.3582 243.976 48.8687C243.976 47.3633 243.709 45.9372 243.177 44.5903C242.645 43.2434 241.854 42.158 240.805 41.334C239.756 40.51 238.488 40.098 237.001 40.098C235.545 40.098 234.292 40.51 233.243 41.334C232.21 42.158 231.427 43.2434 230.895 44.5903C230.363 45.9372 230.096 47.3633 230.096 48.8687C230.096 50.3582 230.363 51.7764 230.895 53.1232C231.427 54.4701 232.218 55.5556 233.267 56.3795C234.316 57.2035 235.56 57.6155 237.001 57.6155ZM237.001 61.9652C234.464 61.9652 232.265 61.4106 230.402 60.3014C228.554 59.1763 227.153 57.6155 226.198 55.6189C225.212 53.6382 224.718 51.3881 224.718 48.8687C224.718 46.3175 225.212 44.0516 226.198 42.0708C227.153 40.0901 228.554 38.5452 230.402 37.436C232.249 36.3268 234.449 35.7722 237.001 35.7722C239.568 35.7722 241.792 36.3268 243.67 37.436C245.549 38.5452 246.982 40.0901 247.968 42.0708C248.954 44.0357 249.447 46.3016 249.447 48.8687C249.447 51.404 248.946 53.662 247.944 55.6427C246.958 57.6234 245.526 59.1763 243.647 60.3014C241.768 61.4106 239.553 61.9652 237.001 61.9652Z" fill="#F5F4F4"/>
<path d="M213.471 61.2759V36.4139H218.826V61.2759H213.471ZM213.471 32.1118V26.8114H218.826V32.1118H213.471Z" fill="#F5F4F4"/>
<path d="M187.617 49.1539C187.617 51.4832 188.181 53.4798 189.308 55.1436C190.451 56.7915 192.118 57.6155 194.31 57.6155C195.75 57.6155 196.995 57.2035 198.044 56.3795C199.093 55.5397 199.876 54.4384 200.392 53.0757C200.925 51.713 201.191 50.271 201.191 48.7498C201.191 47.2445 200.933 45.8263 200.416 44.4952C199.899 43.1642 199.124 42.0946 198.091 41.2865C197.073 40.4942 195.844 40.0981 194.404 40.0981C192.055 40.0981 190.333 40.9616 189.237 42.6888C188.157 44.416 187.617 46.571 187.617 49.1539ZM206.381 26.8114V61.2759H201.167L201.144 57.9007C200.486 59.2635 199.477 60.2855 198.114 60.9669C196.752 61.6324 195.242 61.9652 193.582 61.9652C191.108 61.9652 189.01 61.3868 187.288 60.2301C185.582 59.105 184.29 57.5363 183.413 55.5239C182.552 53.4956 182.122 51.2059 182.122 48.6547C182.122 46.4997 182.419 44.5982 183.014 42.9503C183.625 41.3182 184.431 39.9713 185.433 38.9096C186.451 37.848 187.586 37.0636 188.838 36.5565C190.106 36.0336 191.414 35.7722 192.76 35.7722C194.482 35.7722 196.079 36.0891 197.551 36.7229C198.396 37.1032 199.046 37.4994 199.5 37.9113C199.97 38.3075 200.322 38.6878 200.557 39.0522C200.792 39.4167 200.917 39.5989 200.933 39.5989V26.8114H206.381Z" fill="#F5F4F4"/>
<path d="M176.464 36.3901V61.2759H171.227V57.8294C170.6 58.9703 169.575 59.9607 168.15 60.8005C166.851 61.5769 165.504 61.9652 164.111 61.9652C162.561 61.9652 161.207 61.7592 160.048 61.3472C158.905 60.9193 157.966 60.3014 157.23 59.4932C156.51 58.6692 155.978 57.663 155.633 56.4746C155.289 55.2703 155.116 53.8521 155.116 52.22V36.3901H160.447V51.6733C160.447 53.8125 160.831 55.3416 161.598 56.2607C162.365 57.1639 163.524 57.6155 165.074 57.6155C167.187 57.6155 168.722 56.9975 169.677 55.7615C170.647 54.5256 171.133 52.8697 171.133 50.7939V36.3901H176.464Z" fill="#F5F4F4"/>
<path d="M135.767 40.4308V36.3901H139.83V28.903H145.184V36.3901H150.069V40.4308H145.161V53.765C145.161 55.0802 145.318 55.9913 145.631 56.4984C145.944 56.9896 146.656 57.2352 147.768 57.2352C148.738 57.2352 149.506 57.1718 150.069 57.045V61.2759C149.678 61.2759 149.099 61.3076 148.331 61.3709C147.564 61.4343 146.977 61.466 146.57 61.466C145.177 61.466 144.042 61.3392 143.165 61.0857C142.304 60.8163 141.638 60.4281 141.169 59.921C140.683 59.3981 140.347 58.7564 140.159 57.9958C139.971 57.2352 139.861 56.2845 139.83 55.1436L139.807 40.4308H135.767Z" fill="#F5F4F4"/>
<path d="M111.157 53.2896H116.653C116.762 54.7791 117.303 55.8725 118.273 56.5697C119.26 57.2669 120.528 57.6155 122.078 57.6155C125.741 57.6155 127.573 56.4984 127.573 54.2641C127.51 53.5986 127.244 53.0519 126.775 52.6241C126.321 52.1804 125.757 51.8318 125.084 51.5783C124.41 51.3247 123.534 51.0791 122.453 50.8415C121.389 50.6038 120.402 50.3819 119.494 50.1759C117.897 49.8115 116.551 49.3836 115.455 48.8924C114.328 48.4012 113.412 47.6723 112.707 46.7057C112.003 45.7233 111.651 44.4319 111.651 42.8314C111.651 41.1359 112.167 39.7574 113.201 38.6957C114.234 37.634 115.526 36.8814 117.076 36.4377C118.641 35.994 120.246 35.7722 121.89 35.7722C123.189 35.7722 124.403 35.9148 125.53 36.2C126.657 36.4694 127.683 36.913 128.606 37.531C129.546 38.1332 130.321 38.9334 130.931 39.9317C131.558 40.9141 131.965 42.0708 132.152 43.4019H126.516C126.109 41.1993 124.442 40.098 121.514 40.098C120.434 40.098 119.424 40.2803 118.485 40.6447C117.545 40.9933 117.076 41.6192 117.076 42.5224C117.076 43.1721 117.287 43.7109 117.71 44.1387C118.132 44.5507 118.68 44.8835 119.354 45.137C120.042 45.4064 120.88 45.652 121.866 45.8738C122.868 46.0957 123.917 46.3254 125.013 46.5631C126.548 46.9434 127.886 47.395 129.029 47.9179C130.172 48.425 131.104 49.1618 131.824 50.1284C132.544 51.095 132.904 52.3389 132.904 53.8601C132.904 55.7457 132.372 57.2986 131.307 58.5187C130.242 59.723 128.88 60.5945 127.221 61.1333C125.577 61.6879 123.831 61.9652 121.984 61.9652C119.933 61.9652 118.093 61.6324 116.465 60.9669C114.837 60.333 113.561 59.3585 112.637 58.0433C111.682 56.744 111.189 55.1594 111.157 53.2896Z" fill="#F5F4F4"/>
</svg>
