<svg width="282" height="83" viewBox="0 0 282 83" fill="none" xmlns="http://www.w3.org/2000/svg">
<path d="M249.273 66.5948C252.106 66.5948 254.533 65.8111 256.552 64.2437C258.602 62.6764 260.139 60.6117 261.164 58.0497C262.189 55.4877 262.701 52.79 262.701 49.9567C262.701 47.0933 262.189 44.3806 261.164 41.8186C260.139 39.2566 258.617 37.1919 256.597 35.6245C254.578 34.0572 252.137 33.2735 249.273 33.2735C246.47 33.2735 244.059 34.0572 242.039 35.6245C240.05 37.1919 238.543 39.2566 237.518 41.8186C236.493 44.3806 235.981 47.0933 235.981 49.9567C235.981 52.79 236.493 55.4877 237.518 58.0497C238.543 60.6117 240.065 62.6764 242.084 64.2437C244.104 65.8111 246.5 66.5948 249.273 66.5948ZM249.273 74.8686C244.39 74.8686 240.155 73.8136 236.569 71.7037C233.012 69.5637 230.314 66.5948 228.476 62.797C226.577 59.0293 225.627 54.7492 225.627 49.9567C225.627 45.104 226.577 40.7938 228.476 37.0261C230.314 33.2584 233.012 30.3197 236.569 28.2098C240.125 26.0999 244.36 25.0449 249.273 25.0449C254.216 25.0449 258.496 26.0999 262.113 28.2098C265.73 30.3197 268.488 33.2584 270.387 37.0261C272.286 40.7636 273.235 45.0739 273.235 49.9567C273.235 54.7794 272.271 59.0745 270.342 62.8422C268.443 66.6098 265.685 69.5637 262.068 71.7037C258.451 73.8136 254.186 74.8686 249.273 74.8686Z" fill="white"/>
<path d="M203.974 73.5574V26.2657H214.283V73.5574H203.974ZM203.974 18.0823V8H214.283V18.0823H203.974Z" fill="white"/>
<path d="M154.199 50.4993C154.199 54.9301 155.285 58.7279 157.455 61.8927C159.655 65.0274 162.865 66.5948 167.085 66.5948C169.858 66.5948 172.254 65.8111 174.274 64.2438C176.293 62.6463 177.8 60.5514 178.795 57.9593C179.82 55.3671 180.332 52.6243 180.332 49.7307C180.332 46.8673 179.835 44.1696 178.84 41.6377C177.845 39.1059 176.353 37.0713 174.364 35.5341C172.405 34.0271 170.039 33.2735 167.266 33.2735C162.745 33.2735 159.429 34.9162 157.319 38.2016C155.239 41.487 154.199 45.5863 154.199 50.4993ZM190.324 8V73.5574H180.287L180.242 67.1373C178.976 69.7295 177.032 71.6736 174.409 72.9697C171.787 74.2356 168.878 74.8686 165.683 74.8686C160.921 74.8686 156.882 73.7684 153.567 71.5681C150.281 69.4281 147.794 66.4441 146.107 62.6161C144.449 58.758 143.62 54.4026 143.62 49.5499C143.62 45.4506 144.193 41.8337 145.338 38.699C146.513 35.5944 148.066 33.0324 149.995 31.0129C151.954 28.9935 154.139 27.5015 156.551 26.5369C158.992 25.5423 161.509 25.0449 164.101 25.0449C167.416 25.0449 170.491 25.6478 173.324 26.8534C174.952 27.5768 176.203 28.3303 177.077 29.114C177.981 29.8675 178.659 30.5909 179.111 31.2842C179.563 31.9774 179.805 32.3241 179.835 32.3241V8H190.324Z" fill="white"/>
<path d="M132.727 26.2205V73.5574H122.645V67.0017C121.439 69.1719 119.465 71.0557 116.722 72.6532C114.221 74.1301 111.628 74.8686 108.946 74.8686C105.962 74.8686 103.355 74.4768 101.124 73.6931C98.9239 72.8793 97.1154 71.7038 95.6987 70.1665C94.3122 68.5992 93.2874 66.6852 92.6243 64.4246C91.9612 62.1339 91.6296 59.4362 91.6296 56.3317V26.2205H101.893V55.2918C101.893 59.3609 102.631 62.2695 104.108 64.0177C105.585 65.7358 107.816 66.5948 110.8 66.5948C114.869 66.5948 117.822 65.4193 119.661 63.0683C121.53 60.7172 122.464 57.5675 122.464 53.6189V26.2205H132.727Z" fill="white"/>
<path d="M54.3787 33.9065V26.2204H62.2003V11.9786H72.5087V26.2204H81.9128V33.9065H72.4635V59.2704C72.4635 61.7722 72.7649 63.5053 73.3677 64.4698C73.9705 65.4042 75.342 65.8714 77.482 65.8714C79.3508 65.8714 80.8277 65.7508 81.9128 65.5097V73.5574C81.1593 73.5574 80.044 73.6177 78.5671 73.7383C77.0902 73.8588 75.9599 73.9191 75.1762 73.9191C72.4936 73.9191 70.3084 73.678 68.6205 73.1957C66.9627 72.6833 65.6817 71.9449 64.7774 70.9803C63.843 69.9857 63.195 68.7649 62.8333 67.3182C62.4716 65.8714 62.2606 64.0629 62.2003 61.8927L62.1551 33.9065H54.3787Z" fill="white"/>
<path d="M7 58.3662H17.5796C17.7906 61.1995 18.8305 63.2792 20.6992 64.6054C22.5981 65.9317 25.0396 66.5948 28.0236 66.5948C35.0767 66.5948 38.6032 64.4698 38.6032 60.2199C38.4826 58.9539 37.9702 57.9141 37.066 57.1003C36.1919 56.2563 35.1068 55.5932 33.8107 55.1109C32.5147 54.6287 30.8267 54.1615 28.747 53.7093C26.6974 53.2572 24.7985 52.8352 23.0503 52.4434C19.9759 51.7502 17.3837 50.9363 15.2738 50.002C13.1036 49.0676 11.3404 47.6811 9.98399 45.8425C8.62763 43.9737 7.94945 41.5172 7.94945 38.4729C7.94945 35.2478 8.94412 32.6255 10.9334 30.606C12.9228 28.5865 15.4094 27.1548 18.3934 26.3109C21.4076 25.4669 24.4971 25.0449 27.6619 25.0449C30.1636 25.0449 32.4996 25.3162 34.6698 25.8587C36.8399 26.3711 38.8142 27.2151 40.5925 28.3906C42.401 29.536 43.893 31.0581 45.0685 32.957C46.2742 34.8258 47.0579 37.0261 47.4196 39.558H36.5687C35.785 35.3683 32.5749 33.2735 26.9385 33.2735C24.8587 33.2735 22.9146 33.6201 21.1062 34.3134C19.2977 34.9765 18.3934 36.1671 18.3934 37.8851C18.3934 39.1209 18.8003 40.1457 19.6142 40.9596C20.428 41.7432 21.4829 42.3762 22.779 42.8585C24.1052 43.3709 25.7178 43.8381 27.6167 44.26C29.5457 44.682 31.5652 45.1191 33.6751 45.5712C36.6289 46.2946 39.206 47.1536 41.4063 48.1483C43.6067 49.1128 45.4001 50.5144 46.7866 52.353C48.1731 54.1916 48.8663 56.5577 48.8663 59.4513C48.8663 63.0381 47.8415 65.9919 45.7919 68.3128C43.7423 70.6036 41.12 72.2613 37.925 73.2862C34.7602 74.3411 31.3994 74.8686 27.8427 74.8686C23.8942 74.8686 20.3526 74.2356 17.2179 72.9697C14.0832 71.764 11.6267 69.9103 9.84836 67.4086C8.00974 64.937 7.06028 61.9229 7 58.3662Z" fill="white"/>
</svg>
